<svg height="512pt" viewBox="0 -2 512 512" width="512pt" xmlns="http://www.w3.org/2000/svg"><g fill-rule="evenodd"><path d="m109.214844 99.679688v117.578124l159.882812 51.792969 158.070313-51.792969-.027344-121.285156c10.570313-10.570312 16.527344-24.761718 16.527344-39.738281 0-30.921875-25.320313-56.234375-56.242188-56.234375h-242.554687c-30.925782 0-56.242188 25.3125-56.242188 56.234375 0 17.457031 8.03125 33.109375 20.585938 43.445313zm0 0" fill="#edcf56"/><path d="m137.601562 85.285156c-5.171874-8.496094-8.148437-18.421875-8.148437-29.050781 0-30.921875 25.316406-56.234375 56.273437-56.234375h-40.855468c-30.925782 0-56.242188 25.3125-56.242188 56.234375 0 17.460937 8.03125 33.109375 20.585938 43.445313v117.578124h40.855468v-93.226562c0-31.476562 1.167969-16.292969-12.46875-38.746094zm0 0" fill="#db993d"/><path d="m366.339844 508h93.445312c4.9375 0 8.996094-4.027344 8.996094-8.992188v-27.386718l-59.046875-27.796875-52.390625 27.796875v27.386718c.003906 4.964844 4.0625 8.992188 8.996094 8.992188zm0 0" fill="#616d80"/><path d="m82.351562 508h93.414063c4.964844 0 8.996094-4.027344 8.996094-8.992188v-27.386718l-59.921875-27.796875-51.484375 27.796875v27.386718c0 4.964844 4.03125 8.992188 8.996093 8.992188zm0 0" fill="#616d80"/><path d="m39.859375 330.859375 16.996094-39.648437-16.996094-32.058594h-31.535156c-4.585938 0-8.324219 3.738281-8.324219 8.320312v55.066406c0 4.554688 3.738281 8.320313 8.324219 8.320313zm0 0" fill="#616d80"/><path d="m184.761719 471.621094h307.964843c10.601563 0 19.273438-8.671875 19.273438-19.269532v-193.199218c0-23.035156-18.863281-41.898438-41.90625-41.898438h-388.328125c-23.039063 0-41.90625 18.863282-41.90625 41.898438v193.199218c0 10.597657 8.675781 19.269532 19.273437 19.269532zm0 0" fill="#e6e6e6"/><path d="m415.777344 334.859375c4.585937 0 8.644531-2.101563 11.300781-5.429687 1.988281-2.453126 3.15625-5.605469 3.15625-9.023438 0-3.355469-1.140625-6.453125-3.066406-8.902344-2.65625-3.359375-6.773438-5.519531-11.390625-5.519531-7.96875 0-14.453125 6.453125-14.453125 14.421875 0 8.003906 6.484375 14.453125 14.453125 14.453125zm0 0" fill="#eb5757"/><path d="m456.835938 371.152344c7.972656 0 14.457031-6.480469 14.457031-14.453125 0-7.96875-6.484375-14.453125-14.457031-14.453125-7.972657 0-14.453126 6.484375-14.453126 14.453125 0 7.972656 6.480469 14.453125 14.453126 14.453125zm0 0" fill="#edcf56"/><path d="m456.867188 423.855469c8 0 14.453124-6.484375 14.453124-14.453125 0-7.972656-6.453124-14.453125-14.453124-14.453125-7.972657 0-14.457032 6.480469-14.457032 14.453125 0 7.96875 6.484375 14.453125 14.457032 14.453125zm0 0" fill="#55cf63"/><path d="m383.511719 420.671875c18.367187 0 33.261719-14.890625 33.261719-33.253906 0-9.257813-3.796876-17.636719-9.929688-23.679688-5.988281-5.898437-14.25-9.546875-23.332031-9.546875-12.292969 0-23.011719 6.65625-28.765625 16.554688-2.859375 4.90625-4.496094 10.597656-4.496094 16.671875 0 18.363281 14.894531 33.253906 33.261719 33.253906zm0 0" fill="#616d80"/><path d="m67.3125 330.859375v-71.707031c0-23.035156 18.863281-41.898438 41.902344-41.898438h-27.449219c-23.039063 0-41.90625 18.863282-41.90625 41.898438v193.199218c0 10.597657 8.675781 19.269532 19.273437 19.269532h27.453126c-3.273438 0-6.339844-.820313-9.023438-2.277344-6.074219-3.242188-10.25-9.636719-10.25-16.992188zm0 0" fill="#b3b3b3"/><path d="m114.121094 508c-4.933594 0-8.992188-4.027344-8.992188-8.992188v-27.386718h-31.773437v27.386718c0 4.964844 4.03125 8.992188 8.996093 8.992188zm0 0" fill="#3f4c63"/><path d="m398.113281 508c-4.9375 0-8.996093-4.027344-8.996093-8.992188v-27.386718h-31.769532v27.386718c0 4.964844 4.058594 8.992188 8.992188 8.992188zm0 0" fill="#3f4c63"/><path d="m362.894531 387.414062c0-6.070312 1.632813-11.765624 4.46875-16.671874 4.757813-8.171876 12.875-14.128907 22.453125-15.96875-2.042968-.378907-4.144531-.585938-6.304687-.585938-12.296875 0-23.011719 6.660156-28.765625 16.554688-2.863282 4.90625-4.496094 10.601562-4.496094 16.671874 0 18.367188 14.890625 33.257813 33.261719 33.257813 2.160156 0 4.261719-.203125 6.304687-.585937-15.328125-2.976563-26.921875-16.464844-26.921875-32.671876zm0 0" fill="#3f4c63"/><path d="m15.769531 322.539062v-55.066406c0-4.582031 3.738281-8.320312 8.324219-8.320312h-15.769531c-4.585938 0-8.324219 3.738281-8.324219 8.320312v55.066406c0 4.554688 3.738281 8.320313 8.324219 8.320313h15.769531c-4.585938 0-8.324219-3.765625-8.324219-8.320313zm0 0" fill="#3f4c63"/></g><path d="m307.441406 283.851562h-64.886718c-4.277344 0-7.742188-3.460937-7.742188-7.734374 0-4.273438 3.464844-7.738282 7.742188-7.738282h64.886718c4.273438 0 7.738282 3.464844 7.738282 7.738282 0 4.273437-3.464844 7.734374-7.738282 7.734374zm0 0" fill="#3f4c63"/><path d="m307.441406 313.722656h-64.886718c-4.277344 0-7.742188-3.464844-7.742188-7.738281 0-4.269531 3.464844-7.734375 7.742188-7.734375h64.886718c4.273438 0 7.738282 3.464844 7.738282 7.734375 0 4.273437-3.464844 7.738281-7.738282 7.738281zm0 0" fill="#3f4c63"/></svg>